<?xml version="1.0" standalone="no"?>
<!DOCTYPE svg PUBLIC "-//W3C//DTD SVG 20010904//EN"
 "http://www.w3.org/TR/2001/REC-SVG-20010904/DTD/svg10.dtd">
<svg version="1.0" xmlns="http://www.w3.org/2000/svg"
 width="293.000000pt" height="62.000000pt" viewBox="0 0 293.000000 62.000000"
 preserveAspectRatio="xMidYMid meet">

<g transform="translate(0.000000,62.000000) scale(0.100000,-0.100000)"
fill="#000000" stroke="none">
<path d="M1823 469 c-66 -19 -165 -169 -179 -271 -9 -67 12 -98 68 -98 35 0
47 6 80 40 62 66 48 98 -16 34 -21 -21 -43 -34 -53 -32 -29 6 -23 91 12 161
33 66 98 141 117 134 21 -7 10 -40 -23 -68 -16 -14 -26 -29 -22 -32 13 -14 38
-6 65 20 35 33 40 96 9 113 -11 5 -21 10 -23 9 -2 0 -17 -5 -35 -10z"/>
<path d="M117 450 c-42 -34 -49 -136 -9 -128 13 2 16 12 14 35 -4 40 13 73 38
73 29 0 26 -43 -10 -142 -17 -45 -30 -85 -30 -90 0 -4 10 -8 23 -8 18 0 30 17
66 91 25 50 58 105 75 122 30 31 31 31 34 10 2 -13 -15 -64 -37 -115 -23 -51
-41 -96 -41 -101 0 -4 11 -7 24 -7 21 0 32 13 66 79 41 78 114 170 126 158 4
-3 -10 -45 -30 -93 -54 -130 -51 -138 60 -147 55 -4 77 -2 93 10 14 10 26 11
34 5 7 -5 36 -12 65 -15 l52 -6 24 47 c13 26 34 58 46 72 l22 25 -7 -25 c-3
-14 -9 -42 -12 -62 -5 -34 -3 -38 22 -48 15 -6 37 -7 49 -4 11 4 80 6 151 5
156 -3 152 -3 190 -2 17 0 38 1 48 1 63 0 104 4 120 12 27 14 21 -10 -13 -49
-24 -27 -29 -38 -19 -49 15 -19 41 -3 67 40 13 23 31 38 49 41 41 9 58 20 62
40 3 18 2 18 -23 2 -27 -18 -56 -22 -56 -9 0 5 9 35 20 67 25 72 25 75 0 75
-14 0 -25 -14 -41 -49 -22 -52 -54 -89 -66 -77 -4 4 2 34 14 66 19 53 20 59 5
65 -24 9 -49 -26 -63 -90 -12 -53 -33 -75 -52 -56 -12 12 16 120 44 165 10 17
19 41 19 54 0 27 -27 40 -45 21 -16 -17 -65 -170 -65 -204 0 -28 -36 -53 -53
-36 -12 12 15 118 44 165 10 17 19 41 19 54 0 27 -27 40 -45 21 -16 -17 -65
-170 -65 -204 0 -29 -36 -53 -53 -36 -8 8 -6 26 6 64 22 70 22 79 -5 75 -19
-2 -26 -15 -42 -70 -20 -67 -38 -87 -61 -68 -25 21 20 120 47 104 4 -3 8 2 8
10 0 9 -7 16 -16 16 -11 0 -14 5 -9 18 3 9 9 29 12 45 5 24 2 27 -19 27 -21 0
-27 -7 -38 -45 -7 -25 -19 -45 -26 -45 -8 0 -14 -7 -14 -15 0 -8 4 -15 8 -15
15 0 -14 -92 -32 -102 -32 -18 -40 5 -21 61 9 29 14 58 11 66 -7 20 -41 19
-72 -2 -24 -16 -26 -16 -22 3 2 13 -4 20 -19 22 -19 3 -23 -5 -39 -68 -19 -72
-38 -96 -64 -80 -11 7 -9 19 12 69 15 34 23 63 19 66 -4 2 -34 3 -66 1 -53 -3
-62 -7 -92 -39 -18 -20 -33 -47 -33 -61 0 -29 -22 -49 -44 -40 -22 8 -21 13
20 111 42 102 42 137 1 141 -22 3 -38 -6 -74 -42 l-45 -46 6 32 c3 18 1 37 -5
44 -21 25 -52 15 -97 -33 -39 -41 -44 -44 -39 -22 15 60 -53 91 -106 49z m513
-138 c0 -13 -59 -92 -68 -92 -28 0 -13 61 21 85 24 17 47 20 47 7z"/>
<path d="M1076 454 c-4 -10 -1 -24 7 -31 12 -12 17 -12 31 2 9 10 15 22 13 29
-6 19 -44 19 -51 0z"/>
<path d="M2070 395 c-7 -25 -19 -45 -26 -45 -8 0 -14 -7 -14 -15 0 -8 4 -15 9
-15 6 0 6 -11 0 -29 -6 -16 -9 -44 -7 -63 l3 -33 85 -2 c47 0 104 -4 127 -7
32 -4 47 -1 67 15 23 18 27 19 32 4 5 -12 18 -15 59 -14 28 1 57 -1 63 -5 6
-4 21 -2 33 4 34 19 34 3 -1 -36 -27 -31 -30 -39 -18 -51 20 -19 41 -9 69 37
19 31 32 41 68 49 29 6 54 6 73 -1 53 -19 128 4 128 39 0 12 -3 12 -22 -1 -22
-16 -60 -21 -71 -10 -3 3 9 25 26 50 27 38 29 47 19 69 -9 19 -19 25 -42 25
-39 0 -66 -28 -81 -82 -6 -24 -13 -49 -15 -55 -3 -11 -44 -19 -44 -9 0 2 11
34 25 70 14 37 25 69 25 72 0 9 -116 -3 -138 -15 -30 -16 -62 -60 -62 -86 0
-29 -24 -49 -44 -38 -13 7 -12 16 10 68 13 33 24 63 24 68 0 11 -113 1 -139
-12 -27 -15 -61 -69 -61 -97 0 -24 -20 -36 -39 -25 -20 13 8 99 33 103 24 4
34 28 11 28 -17 0 -17 1 1 68 5 19 2 22 -20 22 -22 0 -28 -6 -38 -45 -11 -40
-15 -45 -41 -45 -24 0 -28 3 -22 18 3 9 9 29 12 45 5 24 2 27 -19 27 -21 0
-27 -7 -38 -45z m80 -87 c0 -6 -5 -28 -11 -49 -13 -41 -34 -56 -54 -39 -15 13
3 86 25 100 16 10 40 2 40 -12z m585 -17 c-14 -29 -45 -49 -45 -30 0 15 21 53
34 61 20 13 26 -3 11 -31z m-375 16 c0 -15 -58 -87 -71 -87 -18 0 -9 39 17 69
26 32 54 41 54 18z m210 7 c0 -21 -56 -94 -72 -94 -17 0 -7 40 18 69 23 27 54
42 54 25z"/>
<path d="M1922 347 c-31 -18 -49 -46 -57 -89 -6 -29 -3 -40 14 -57 24 -24 39
-26 75 -9 27 12 66 80 66 115 0 39 -58 62 -98 40z m43 -87 c-4 -17 -15 -34
-24 -40 -36 -19 -41 18 -10 69 18 31 22 33 31 18 5 -10 6 -31 3 -47z"/>
</g>
</svg>
