<?xml version="1.0" encoding="UTF-8" standalone="no"?>
<!-- Created with Inkscape (http://www.inkscape.org/) -->

<svg
   xmlns:osb="http://www.openswatchbook.org/uri/2009/osb"
   xmlns:dc="http://purl.org/dc/elements/1.1/"
   xmlns:cc="http://creativecommons.org/ns#"
   xmlns:rdf="http://www.w3.org/1999/02/22-rdf-syntax-ns#"
   xmlns:svg="http://www.w3.org/2000/svg"
   xmlns="http://www.w3.org/2000/svg"
   xmlns:sodipodi="http://sodipodi.sourceforge.net/DTD/sodipodi-0.dtd"
   xmlns:inkscape="http://www.inkscape.org/namespaces/inkscape"
   width="561.36243mm"
   height="179.98769mm"
   viewBox="0 0 561.36242 179.98768"
   version="1.1"
   id="svg4000"
   inkscape:version="0.92.5 (2060ec1f9f, 2020-04-08)"
   sodipodi:docname="logo.svg">
  <defs
     id="defs3994">
    <linearGradient
       id="linearGradient6369"
       osb:paint="solid">
      <stop
         style="stop-color:#000000;stop-opacity:1;"
         offset="0"
         id="stop6367" />
    </linearGradient>
    <linearGradient
       id="linearGradient6355"
       osb:paint="solid">
      <stop
         style="stop-color:#3e271e;stop-opacity:1;"
         offset="0"
         id="stop6353" />
    </linearGradient>
  </defs>
  <sodipodi:namedview
     id="base"
     pagecolor="#ffffff"
     bordercolor="#666666"
     borderopacity="1.0"
     inkscape:pageopacity="0.0"
     inkscape:pageshadow="2"
     inkscape:zoom="0.35"
     inkscape:cx="1527.9852"
     inkscape:cy="412.99138"
     inkscape:document-units="mm"
     inkscape:current-layer="g3970"
     showgrid="false"
     inkscape:window-width="1300"
     inkscape:window-height="84"
     inkscape:window-x="66"
     inkscape:window-y="27"
     inkscape:window-maximized="1" />
  <metadata
     id="metadata3997">
    <rdf:RDF>
      <cc:Work
         rdf:about="">
        <dc:format>image/svg+xml</dc:format>
        <dc:type
           rdf:resource="http://purl.org/dc/dcmitype/StillImage" />
        <dc:title></dc:title>
      </cc:Work>
    </rdf:RDF>
  </metadata>
  <g
     inkscape:label="Layer 1"
     inkscape:groupmode="layer"
     id="layer1"
     transform="translate(298.44609,-78.116285)">
    <g
       transform="matrix(0.07000139,0,0,-0.11203705,4.280256,178.6655)"
       id="g3970"
       style="fill:#000000;stroke:none">
      <path
         d="M 775.20038,855.22507 C 581.93157,775.99099 292.02875,150.45891 251.03238,-274.90291 c -26.35457,-279.40433 35.13978,-408.68097 199.12514,-408.68097 102.49112,0 137.63064,25.02128 234.26518,166.80856 181.55537,275.23413 140.55913,408.68097 -46.85296,141.78727 -61.49462,-87.57449 -125.91734,-141.78727 -155.20067,-133.44684 -84.9211,25.02127 -67.35108,379.48946 35.13992,671.40444 96.63414,275.23412 286.97433,588.00018 342.61236,558.80867 61.49462,-29.1915 29.28307,-166.80858 -67.35108,-283.57455 -46.85308,-58.383 -76.13628,-120.93618 -64.42285,-133.44687 38.06802,-58.38296 111.27581,-25.02129 190.34032,83.40429 102.49096,137.61706 117.13236,400.34054 26.35471,471.23417 -32.21155,20.8511 -61.49449,41.70215 -67.35108,37.53196 -5.85658,0 -49.78131,-20.8511 -102.49099,-41.70215 z"
         id="path3960"
         inkscape:connector-curvature="0"
         style="opacity:1;fill:#f22853;fill-opacity:1;fill-rule:evenodd;stroke-width:3.49452257" />
      <path
         d="m -4220.5002,775.99099 c -122.9891,-141.78727 -143.4874,-567.14907 -26.3547,-533.78737 38.0678,8.34043 46.8529,50.04258 40.9963,145.95747 -11.7133,166.80855 38.0679,304.42563 111.2758,304.42563 84.9211,0 76.1361,-179.3192 -29.2832,-592.17038 -49.7813,-187.659626 -87.8493,-354.4682 -87.8493,-375.31925 0,-16.68086 29.2832,-33.36172 67.3511,-33.36172 52.7098,0 87.8496,70.89363 193.2687,379.489482 73.2078,208.510658 169.842,437.872438 219.6235,508.766078 87.8493,129.27665 90.7775,129.27665 99.5625,41.70214 5.8567,-54.21277 -43.9247,-266.89369 -108.3476,-479.57458 -67.3511,-212.680917 -120.0607,-400.34054 -120.0607,-421.19164 0,-16.68084 32.2114,-29.19148 70.2795,-29.19148 61.4945,0 93.7059,54.21277 193.2686,329.446917 120.0609,325.276663 333.8277,708.936363 368.9673,658.893783 11.7133,-12.51064 -29.2831,-187.65964 -87.8493,-387.82987 -158.1289,-542.12782 -149.344,-575.48954 175.6986,-613.02145 161.0573,-16.68088 225.4801,-8.34045 272.3331,41.7021 40.9964,41.70215 76.136,45.87239 99.5626,20.8511 20.4983,-20.8511 105.4191,-50.04258 190.3402,-62.5532 l 152.2723,-25.02131 70.2796,196.00008 c 38.068,108.42553 99.5626,241.872393 134.7023,300.25539 l 64.4229,104.25536 -20.4983,-104.25536 c -8.7849,-58.382997 -26.3547,-175.149 -35.1397,-258.55326 -14.6415,-141.78727 -8.7849,-158.46813 64.423,-200.17028 43.9246,-25.02127 108.3474,-29.1915 143.4872,-16.68086 32.2114,16.68086 234.265,25.02129 442.1751,20.85107 456.8167,-12.51064 445.1035,-12.51064 556.3793,-8.3404 49.78144,0 111.27589,4.17019 140.55888,4.17019 184.48389,0 304.54462,16.68086 351.39757,50.04258 79.0644,58.38299 61.49469,-41.70215 -38.06811,-204.34049 -70.27931,-112.59578 -84.92108,-158.46813 -55.6378,-204.34049 43.92475,-79.23408 120.0607,-12.51063 196.19692,166.80857 38.06809,95.91491 90.77771,158.46813 143.48731,170.97876 120.06061,37.53193 169.842211,83.40427 181.555228,166.80855 8.785037,75.063864 5.856613,75.063864 -67.351168,8.34043 -79.0644,-75.06385 -163.98547,-91.74471 -163.98547,-37.53191 0,20.85105 26.3548,145.957493 58.56625,279.404342 73.20777,300.255378 73.20777,312.766008 0,312.766008 -40.99629,0 -73.20774,-58.38301 -120.0607,-204.34046 -64.42292,-216.851122 -158.12882,-371.14903 -193.26872,-321.10647 -11.7133,16.68086 5.85664,141.787269 40.99629,275.23412 55.63806,221.02133 58.56627,246.04261 14.64176,271.0639 -70.27955,37.53192 -143.4873,-108.42558 -184.48388,-375.319247 -35.13965,-221.021333 -96.63409,-312.766043 -152.27217,-233.531993 -35.13963,50.04257 46.85297,500.42566 128.84582,688.08529 29.28299,70.89364 55.6378,170.97878 55.6378,225.19158 0,112.59577 -79.0644,166.80854 -131.774,87.57448 -46.85296,-70.89362 -190.34027,-708.93635 -190.34027,-850.723628 0,-116.766012 -105.41914,-221.021342 -155.20054,-150.127722 -35.1397,50.04257 43.9247,492.08523 128.8457,688.08529 29.28328,70.89364 55.63809,170.97878 55.63809,225.19158 0,112.59577 -79.06439,166.80854 -131.77409,87.57448 -46.853,-70.89362 -190.3403,-708.93635 -190.3403,-850.723628 0,-120.936202 -105.4192,-221.021342 -155.2006,-150.127722 -23.4265,33.36171 -17.5698,108.425574 17.5699,266.893712 64.4229,291.914958 64.4229,329.446868 -14.6416,312.766008 -55.6379,-8.34043 -76.1361,-62.5532 -122.9891,-291.91495 -58.5662,-279.40434 -111.2758,-362.80863 -178.627,-283.57454 -73.2078,87.574484 58.5662,500.42569 137.6306,433.70225 11.7133,-12.51064 23.4266,8.34043 23.4266,41.70215 0,37.53189 -20.4982,66.72337 -46.853,66.72337 -32.2115,0 -40.9964,20.8511 -26.3549,75.06387 8.785,37.53194 26.3549,120.9362 35.1398,187.65963 14.6415,100.08515 5.8566,112.5958 -55.6379,112.5958 -61.4946,0 -79.0645,-29.19151 -111.2759,-187.65966 -20.4982,-104.25534 -55.6379,-187.65964 -76.1361,-187.65964 -23.4265,0 -40.9964,-29.19148 -40.9964,-62.5532 0,-33.36167 11.7133,-62.55317 23.4265,-62.55317 43.9247,0 -40.9963,-383.65968 -93.706,-425.36183 -93.7059,-75.06385 -117.1324,20.85105 -61.4945,254.383052 26.3548,120.936208 40.9963,241.872378 32.2114,275.234098 -20.4982,83.40429 -120.0608,79.23406 -210.8385,-8.34043 -70.2794,-66.72339 -76.136,-66.72339 -64.4228,12.51062 5.8566,54.21281 -11.7132,83.4043 -55.638,91.74473 -55.638,12.51066 -67.3511,-20.85106 -114.2042,-283.57453 -55.6379,-300.25539 -111.2758,-400.34053 -187.4119,-333.61711 -32.2116,29.19148 -26.3549,79.23405 35.1398,287.74477 43.9247,141.78727 67.3512,262.72343 55.6379,275.2341 -11.7132,8.34042 -99.5627,12.51062 -193.2687,4.17019 -155.2006,-12.51062 -181.5553,-29.19148 -269.4046,-162.63831 -52.7097,-83.40429 -96.6344,-196.000062 -96.6344,-254.38307 0,-120.9362 -64.4228,-204.34048 -128.8457,-166.80854 -64.4228,33.36172 -61.4946,54.21277 58.5663,462.89376 122.9891,425.3618 122.9891,571.3193 2.9282,588.00016 -64.4228,12.51064 -111.2758,-25.02129 -216.695,-175.149 l -131.7741,-191.82984 17.5699,133.44686 c 8.785,75.06384 2.9284,154.29789 -14.6415,183.4894 -61.4946,104.25537 -152.2723,62.55322 -284.0463,-137.61707 -114.2043,-170.97878 -128.8458,-183.4894 -114.2043,-91.74471 43.9246,250.21285 -155.2005,379.48949 -310.401,204.34049 z m 1502.2241,-575.4895 c 0,-54.2128 -172.7704,-383.65969 -199.1252,-383.65969 -81.9928,0 -38.068,254.383052 61.4946,354.46818 70.2794,70.89364 137.6306,83.40429 137.6306,29.19151 z"
         id="path3962"
         inkscape:connector-curvature="0"
         style="opacity:1;fill:#f22853;fill-opacity:1;fill-rule:evenodd;stroke-width:3.49452257" />
      <path
         d="m -1412.2489,792.67185 c -11.7132,-41.70212 -2.9283,-100.08513 20.4982,-129.27664 35.1398,-50.04257 49.7813,-50.04257 90.7777,8.34043 26.3548,41.70215 43.9247,91.7447 38.0681,120.93621 -17.5699,79.23408 -128.8458,79.23408 -149.344,0 z"
         id="path3964"
         inkscape:connector-curvature="0"
         style="opacity:1;fill:#f22853;fill-opacity:1;fill-rule:evenodd;stroke-width:3.49452257" />
      <path
         d="m 1498.4934,546.62921 c -20.4981,-104.25534 -55.6379,-187.65964 -76.136,-187.65964 -23.4266,0 -40.9964,-29.19148 -40.9964,-62.5532 0,-33.36167 11.7132,-62.55317 26.3548,-62.55317 17.5698,0 17.5698,-45.87237 0,-120.9362 -17.5699,-66.723437 -26.3548,-183.489427 -20.4982,-262.72348 l 8.7849,-137.61708 248.9063,-8.34043 c 137.6308,0 304.5447,-16.68083 371.896,-29.1915 93.7059,-16.68084 137.6308,-4.17021 196.1969,62.5532 67.351,75.06386 79.0645,79.23409 93.7058,16.68086 14.6415,-50.04256 52.7097,-62.5532 172.7703,-58.38299 81.9929,4.17022 166.914,-4.17021 184.484,-20.85107 17.5697,-16.68084 61.4945,-8.34041 96.6343,16.68086 99.5623,79.23406 99.5623,12.51064 -2.9283,-150.1277 -79.0645,-129.27663 -87.8496,-162.63834 -52.7096,-212.6809 58.5662,-79.23407 120.0606,-37.53194 202.0536,154.29791 55.6376,129.27663 93.7058,170.97876 199.125,204.3405 84.9211,25.02126 158.1289,25.02126 213.7669,-4.17024 155.2003,-79.23406 374.8238,16.68086 374.8238,162.63834 0,50.04257 -8.7848,50.04257 -64.4228,-4.17019 -64.423,-66.72344 -175.6988,-87.57452 -207.9104,-41.70215 -8.7847,12.51063 26.355,104.255344 76.1363,208.5106889 79.0644,158.4681411 84.9211,196.0000611 55.638,287.7447411 -26.3551,79.23406 -55.638,104.25535 -122.9892,104.25535 -114.204,0 -193.2686,-116.76595 -237.1933,-341.957513 -17.5698,-100.085157 -38.068,-204.340497 -43.9246,-229.361787 -8.7851,-45.87234 -128.8458,-79.23404 -128.8458,-37.53191 0,8.34043 32.2114,141.787251 73.2078,291.914973 40.9965,154.297927 73.2078,287.744757 73.2078,300.255377 0,37.53195 -339.684,-12.51062 -404.1069,-62.5532 -87.8494,-66.72339 -181.5555,-250.212808 -181.5555,-358.638368 0,-120.936202 -70.2796,-204.340482 -128.8458,-158.468152 -38.0682,29.19152 -35.1397,66.72343 29.2833,283.574572 38.0682,137.617068 70.2794,262.723428 70.2794,283.574528 0,45.87234 -330.8991,4.17019 -407.0356,-50.04258 -79.0642,-62.55318 -178.6268,-287.744742 -178.6268,-404.510758 0,-100.085102 -58.5663,-150.127662 -114.2042,-104.255332 -58.566,54.21281 23.4263,412.85121 96.6343,429.53205 70.2795,16.68086 99.5627,116.76595 32.2114,116.76595 -49.7812,0 -49.7812,4.17024 2.9285,283.57458 14.6414,79.23407 5.8566,91.74472 -58.5663,91.74472 -64.423,0 -81.9929,-25.02129 -111.2759,-187.65966 -32.2116,-166.80854 -43.9249,-187.65964 -120.061,-187.65964 -70.2792,0 -81.9925,12.51067 -64.4226,75.06387 8.7847,37.53194 26.3548,120.9362 35.1398,187.65963 14.6412,100.08515 5.8565,112.5958 -55.6381,112.5958 -61.4946,0 -79.0645,-29.19151 -111.2759,-187.65966 z m 234.2649,-362.80858 c 0,-25.02129 -14.6415,-116.765993 -32.2114,-204.340492 -38.0678,-170.978768 -99.5628,-233.531998 -158.1288,-162.638338 -43.9247,54.21277 8.785,358.6384 73.2078,417.0214 46.8532,41.70214 117.1324,8.34042 117.1324,-50.04257 z M 3445.8212,112.927 C 3404.8248,-8.0092306 3314.0471,-91.413515 3314.0471,-12.179432 c 0,62.55321 61.4943,221.021352 99.5625,254.383052 58.5662,54.21275 76.1363,-12.51064 32.2116,-129.27662 z m -1098.1173,66.7234 c 0,-62.5532 -169.8421,-362.8086 -207.9104,-362.8086 -52.7094,0 -26.3544,162.638338 49.7815,287.74477 76.1364,133.44684 158.1289,170.97877 158.1289,75.06383 z m 614.9455,29.19152 c 0,-87.57452 -163.9856,-392.00012 -210.8383,-392.00012 -49.7816,0 -20.4982,166.80854 52.7097,287.74477 67.3509,112.59578 158.1286,175.14894 158.1286,104.25535 z"
         id="path3966"
         inkscape:connector-curvature="0"
         style="opacity:1;fill:#f22853;fill-opacity:1;fill-rule:evenodd;stroke-width:3.49452257" />
      <path
         d="M 1065.1033,346.45895 C 974.32552,271.39511 921.61597,154.62912 898.18949,-24.69009 c -17.56989,-120.9362 -8.78507,-166.80854 40.99637,-237.7022 70.27954,-100.08512 114.20394,-108.42554 219.62354,-37.53191 79.0645,50.04258 193.2684,333.617118 193.2684,479.5746 0,162.63831 -169.8422,258.55327 -286.9745,166.80855 z m 125.9171,-362.80861 c -11.713,-70.893626 -43.9242,-141.78725 -70.2792,-166.80854 -105.4192,-79.23409 -120.0611,75.06385 -29.2833,287.74477 52.7096,129.27663 64.423,137.61705 90.7777,75.06383 14.6417,-41.70214 17.57,-129.276622 8.7848,-196.00006 z"
         id="path3968"
         inkscape:connector-curvature="0"
         style="opacity:1;fill:#f22853;fill-opacity:1;fill-rule:evenodd;stroke-width:3.49452257" />
    </g>
  </g>
</svg>
